PathFileType	4	(X/Y/Z)	Patient4_TMGait_0pt6_01_right_30.trc.trc
DataRate	CameraRate	NumFrames	NumMarkers	Units	OrigDataRate	OrigDataStartFrame	OrigNumFrames
84.848484848485	84.848484848485	5	33	mm	84.848484848485	53	       141
Frame#	Time	Sacral			L.Shoulder			Chest			R.Shoulder			Neck			R.ASIS			L.ASIS			R.Thigh.Superior			R.Thigh.Lateral			R.Thigh.Inferior			R.Patella			L.Thigh.Superior			L.Thigh.Lateral			L.Thigh.Inferior			L.Patella			L.Shank.Superior			L.Shank.Lateral			L.Shank.Inferior			R.Shank.Superior			R.Shank.Lateral			R.Shank.Inferior			R.Heel			R.Midfoot.Superior			R.Midfoot.Lateral			R.Toe			L.Heel			L.Midfoot.Lateral			L.Midfoot.Superior			L.Toe			L.Elbow			L.Wrist			R.Elbow			R.Wrist			
		X1	Y1	Z1	X2	Y2	Z2	X3	Y3	Z3	X4	Y4	Z4	X5	Y5	Z5	X6	Y6	Z6	X7	Y7	Z7	X8	Y8	Z8	X9	Y9	Z9	X10	Y10	Z10	X11	Y11	Z11	X12	Y12	Z12	X13	Y13	Z13	X14	Y14	Z14	X15	Y15	Z15	X16	Y16	Z16	X17	Y17	Z17	X18	Y18	Z18	X19	Y19	Z19	X20	Y20	Z20	X21	Y21	Z21	X22	Y22	Z22	X23	Y23	Z23	X24	Y24	Z24	X25	Y25	Z25	X26	Y26	Z26	X27	Y27	Z27	X28	Y28	Z28	X29	Y29	Z29	X30	Y30	Z30	X31	Y31	Z31	X32	Y32	Z32	X33	Y33	Z33	

53	36.522857142857	728.260104341290	1006.758437926108	524.885124534819	861.023338376220	1441.226096538685	338.128368541660	983.823552795422	1378.307207625212	487.046713120296	914.200625820822	1442.313616414236	669.933206006783	854.648142033347	1499.444719172988	495.098213870607	961.495821059502	949.010330783139	627.168549473957	931.134920285877	969.543734946327	354.739209726826	986.078457238939	741.470130096125	596.874835212038	895.449289644641	635.482956552033	654.164538415677	968.508269960950	580.012305652042	575.484260332333	960.843341379477	492.386683895500	579.140024217239	1021.018053511622	790.071695281376	373.407066932981	975.525220645323	663.048961186735	294.455117616456	1086.828694952723	605.437568914931	343.590110900058	1106.097761842434	519.858171091241	333.724524268762	1052.469082073502	445.706978838694	331.113539459162	920.433835172789	373.822570414602	293.143568385532	942.586829764500	244.834350642652	345.954702604910	930.681471921307	404.495355396591	581.065192106254	853.102531868047	300.563837240011	634.104119385812	897.486096413826	207.258985706130	569.127373684108	761.974839995859	43.451816678939	524.340679396728	933.399417184187	97.596650853859	568.200329839774	842.907374410052	36.716206109488	601.946617157706	1051.155868501666	43.753099820091	598.387654794215	776.925920130529	134.936792552449	398.907531304187	834.381941989478	108.782984106778	310.521440045970	935.968818466349	141.731280872333	322.685420410818	1034.823853606436	54.544016963018	279.691430553517	844.212003975875	1081.355136391613	232.387802505054	913.886411952911	830.594339378243	226.262164443805	973.393053576319	1095.155583213706	788.277009723308	1157.162200775465	911.083867083064	771.427079915955	
54	36.534642857143	727.302202995322	1007.245482781532	525.592004916575	860.106089285382	1441.236345468221	338.630352460868	983.674453641304	1378.091537477476	486.814406423144	915.357027161839	1442.402160062595	670.108762101927	854.741492207861	1499.467684540223	495.508539001980	960.647360957580	948.618161115821	627.065260896399	929.496698323053	969.691437649833	354.839609154991	982.853673802758	740.711040277280	596.199886529353	891.478512375182	635.441945571343	654.171015624454	963.363242753398	579.353935508748	575.105591980328	954.910158558627	492.068069480128	578.773794748983	1020.080542504484	791.630328549405	373.672361656238	976.030049047279	664.215040567557	294.314595958698	1087.152800222653	607.464228313282	344.349968661652	1107.980442242322	523.412318202517	334.140246027548	1057.940952624919	448.222188108302	330.828758420258	930.449838791380	369.143498472537	292.058119264234	960.190741074962	241.072039499669	344.014926477406	924.545167106546	404.287429759624	580.823112538288	846.834045016736	300.594505246298	634.076462136157	890.791170670332	207.149848414458	569.001744653276	754.883939213464	43.480985431291	524.388138639300	926.281145244518	97.509097138445	568.152935137766	835.790445055775	36.715788266952	601.970570838434	1044.013942046133	43.617614649653	598.430052270250	801.440999363944	121.159470715413	396.075454495667	860.366047316803	99.044699171757	307.600827338691	959.840893917868	137.805961832323	320.114462230172	1063.689638719466	56.890826634228	276.743480095918	834.572547237032	1081.715865204538	233.814939960545	894.317229487301	828.539153986941	229.279397922159	982.709552146517	1097.157281613064	788.730341311264	1175.082642804084	922.424834768442	769.991317653608	
55	36.546428571429	726.320426821340	1007.612204758590	526.120495460033	859.325619543702	1441.099594024584	339.006205971362	983.612179728679	1377.681880856316	486.468700262038	916.561124332061	1442.296116924129	670.149997221132	854.939583177480	1499.343444878800	495.776277461944	959.755717677441	948.083624045629	626.859286361635	927.956998377807	969.625234979683	354.812987705401	979.694885451710	739.859998396553	595.576843181257	887.556826738571	635.312505395532	654.155166812717	958.290815154129	578.632836520661	574.713712628506	949.057050311989	491.688495302206	578.392914840407	1018.819369989120	792.612025173691	373.956047239906	976.043276667973	664.911077937476	294.166192663178	1086.717582571688	608.773370112276	345.422242435264	1109.039592330008	526.440271009632	334.876880050756	1062.734519833718	450.503170606983	330.779321785563	940.486427679658	364.299384183664	290.898210256869	977.855657684574	237.669914898598	342.156384601465	918.470678759105	404.032683919506	580.567130451762	840.636390706044	300.568495852024	634.048074358593	884.115096706258	206.992128791367	568.847022388045	747.801745297865	43.479427193053	524.444123537845	919.146208529146	97.402549646891	568.074686474794	828.671698501261	36.710051305106	601.993892627367	1036.876439697358	43.472352146369	598.463843041473	826.727677693582	108.002389107428	393.002987156190	887.127035121749	90.010519904606	304.623890502772	984.060257343285	134.538654191434	317.702576220054	1092.680499821000	60.198642918393	274.328043314350	824.843942446695	1082.211080120739	235.150646256243	875.138981329599	827.118661993132	232.321333419568	991.595953519039	1099.140797332961	789.025234651643	1192.184598855371	934.292325932865	768.364090360628	
56	36.558214285714	725.327396382907	1007.861702978998	526.484432940365	858.691626379793	1440.833557077440	339.245179272810	983.631995399361	1377.087337045060	486.007445343394	917.796893092698	1441.997346222531	670.051798053753	855.240507617114	1499.084308338120	495.897177150568	958.838132277662	947.433680092633	626.551117042516	926.500645884826	969.345233588656	354.658839559201	976.629587656482	738.926375074520	595.039416770698	883.684468760614	635.109803753896	654.119908152820	953.302606235685	577.854945444749	574.331345797995	943.286852986267	491.253830784123	578.008364782981	1017.235701403813	793.031341663835	374.249129052908	975.553199302373	665.157521928794	293.987757036089	1085.568870290948	609.407519399401	346.714969707701	1109.329795006313	528.960189557493	335.870395100299	1066.862230692893	452.584977821726	330.939142540745	950.516454473217	359.457943016273	289.667852452811	995.418993958411	234.817507531541	340.438495283864	912.457121937929	403.744588597665	580.309039376419	834.497434086663	300.500093185714	634.024219179389	877.455766831916	206.796871525115	568.673739926671	740.721887563549	43.453407712100	524.506858820399	911.997766336193	97.283174257303	567.974380292801	821.551857526464	36.700710560422	602.019471225109	1029.745687124799	43.322036160576	598.491062857581	852.522765608465	95.832198339291	389.790571000455	914.413034071281	81.967484463313	301.710015030486	1008.396623769531	132.127016603849	315.546365050866	1121.501876640817	64.582902666560	272.602119581188	815.120884139653	1082.860417884476	236.422167958142	856.406740182434	826.285717445794	235.373689266220	1000.042382355895	1101.067837002329	789.144532563239	1208.391946617758	946.599988660973	766.567561644308	
57	36.570000000000	724.338606896847	1008.003591338142	526.701055150641	858.209273622489	1440.463287559824	339.337300551260	983.726174520556	1376.328648243285	485.430985616894	919.044338649886	1441.520680298194	669.810220156014	855.637584943600	1498.708653657065	495.870329274264	957.914128071019	946.699323466838	626.142970802845	925.109784849260	968.865059069777	354.377197051355	973.673254916699	737.922957223287	594.604453423078	879.855280176363	634.854441751881	654.064980862055	948.398978092740	577.031262615489	573.973365102487	937.595076546619	490.773769400565	577.626437929108	1015.341335748732	792.927381622318	374.529029505169	974.557316966953	664.989239835409	293.753540784694	1083.779600032822	609.438116048272	348.107565638903	1108.923017704978	531.008356898765	337.036796771768	1070.349605632877	454.504239073053	331.265473010273	960.477965556485	354.772460322788	288.389358727562	1012.697192980671	232.657207391237	338.913899425469	906.497077454412	403.440076650233	580.056843535195	828.398962902169	300.407540407689	634.007794526668	870.807446309550	206.578735898156	568.492466560448	733.638551346168	43.411086473502	524.574334005418	904.839231991094	97.157795748771	567.861972127202	814.431289237090	36.689411962891	602.049527317346	1022.623011822376	43.172137603510	598.513618745308	878.505962623677	84.950195460647	386.564203776512	941.910254670237	75.120070993883	298.991336315639	1032.587520394812	130.693108280837	313.729908254022	1149.840814947487	70.056679610483	271.686921517977	805.503404873248	1083.679797561282	237.653120875477	838.169669330994	825.999794315385	238.417484148572	1008.050646804536	1102.916453988593	789.069383234395	1223.643725475729	959.259439258286	764.614223067912	
